Patient4_TMGait_0pt3_02_right_05_EMG.mot
version=1
nRows=13
nColumns=33
inDegrees=no
endheader
time	1LAddLong	2LGlutMax	3LGlutMed	4LIliopsoas	5LSemiMemb	6LBicFemLong	7LRecFem	8LVastMed	9LVastLat	10LGasMed	11LTibAnt	12lTibPost	13LPeroneusLong	14LSol	15LExtDigLong	16LFlexDigLong	17RAddLong	18RGlutMax	19RGlutMed	20RIliopsoas	21RSemiMemb	22RBicFemLong	23RRecFem	24RVastMed	25RVastLat	26RGasMed	27RTibAnt	28RTibPost	29RPeroneusLong	30RSol	31RExtDigLong	32RFlexDigLong
8.29	0.034637	-0.070648	-0.21164	0.005188	0.04364	0.015106	-0.20142	0.002441	0.4126	0.14923	-0.007782	-0.048981	-0.012054	0.11337	0.1004	0.024719	0.049133	-0.12314	0.85525	-0.016785	-0.09201	-0.17822	0.24567	-0.084991	-0.048981	0.001831	-0.34759	-0.002289	0.1062	-0.016479	-0.002747	0.006409
8.291	0.037079	-0.054016	-0.028381	-0.019226	0.030212	0.030518	-0.045166	-0.010986	0.24063	0.10452	-0.007324	-0.088806	-0.26291	-0.12131	-0.025024	0.0177	0.045471	-0.11429	0.89966	0.026703	-0.08316	-0.18082	0.2272	-0.10986	-0.043182	0.003815	-0.32608	-0.001068	0.36972	0.036316	-0.00412	0.001984
8.292	0.014954	-0.054169	0.063019	-0.001221	-0.00473	0.039673	-0.010986	-0.029144	-0.011292	-0.031433	-0.010376	0.18646	-0.003357	-0.31082	0.019684	0.007782	0.031281	-0.17914	0.51666	-0.00473	-0.093384	-0.16174	0.2243	-0.10513	-0.027466	0.003357	-0.15137	-0.002289	0.39414	0.063629	-0.002136	-0.008545
8.293	-0.003815	-0.05661	0.10239	0.021973	-0.012054	0.070953	0.039215	-0.013733	-0.2356	-0.012054	-0.007935	-0.15442	0.18112	0.019379	0.001984	0.01236	0.030823	-0.23331	0.58609	-0.012512	-0.10101	-0.11902	0.20737	-0.06485	-0.028687	0.001526	-0.052032	-0.006409	-0.1329	0.013275	-0.003662	-0.009918
8.294	-0.012817	-0.052338	0.11139	0.011597	0.003357	0.10284	0.032654	-0.001831	-0.38757	-0.068512	-0.009613	-0.112	-0.026093	0.19012	-0.044861	0.019684	0.02533	-0.24506	0.76141	0.047455	-0.10773	-0.096741	0.15167	-0.059052	-0.010986	0.003204	0.1831	-0.006104	-0.14999	0.034332	-0.003357	-0.001373
8.295	-0.009003	-0.006561	0.028229	0.003815	0.007935	0.09552	-0.074615	0.007324	-0.28183	0.10025	-0.000153	-0.081024	0.13321	0.053253	-0.056305	0.026703	-0.004425	-0.29907	0.78156	0.007477	-0.10712	-0.049896	0.1648	0.020142	0	-0.00061	0.50888	-0.003967	-0.1683	-0.037231	-0.005341	-0.00946
8.296	-0.015564	0.006866	0.013733	0.000305	0.004578	0.11383	-0.042877	0.004272	-0.012665	0.16724	-0.005798	0.23712	0.17349	0.12161	-0.061951	0.014648	-0.031281	-0.28168	0.62042	-0.052795	-0.09964	-0.044861	0.18707	0.002289	0.001984	0.002899	0.19257	0.006866	-0.03067	-0.10437	-0.003357	-0.013733
8.297	-0.02533	0.018921	0.054169	-0.013428	-0.027161	0.12344	-0.000916	-0.001831	0.2034	0.11475	-0.008545	-0.25482	0.091248	-0.31525	-0.066833	0.005188	-0.006104	-0.29755	0.6221	-0.03479	-0.098724	-0.045776	0.19287	0.059967	0.016479	0.006409	0.13763	-0.003357	-0.072021	-0.079803	-0.002289	-0.013428
8.298	-0.044708	0.039368	0.23071	0.010529	-0.046997	0.15427	-0.016174	0.001831	0.28534	0.04837	-0.00473	0.082703	-0.083618	-0.51926	-0.058289	-0.00824	0.000305	-0.25711	0.9166	-0.023346	-0.10071	-0.038757	0.19424	0.068359	-0.008698	-0.009155	0.28	-0.002747	-0.11948	0.002289	-0.000763	-0.021667
8.299	-0.05722	0.032196	0.24078	0.035248	-0.032654	0.15671	0.028076	0.006714	0.21316	0.077209	-0.00351	-0.029144	-0.20874	-0.31799	-0.006409	0.00885	0.002899	-0.19592	1.216	-0.1329	-0.089417	-0.026245	0.20065	0.10544	-0.009766	-0.00824	0.20935	-0.003662	-0.10742	-0.043945	-0.002594	-0.010376
8.3	-0.063629	0.11459	0.32455	0.011902	-0.12375	0.094604	0.054932	0.005646	-0.22003	0.010986	0.003052	-0.009155	0.18982	-0.12405	0.006561	0.00946	0.001373	-0.12421	0.9964	-0.10437	-0.065918	-0.00885	0.20783	0.06134	0.030975	0.010376	0.16312	0.004578	-0.017548	-0.10559	-0.008545	-0.00946
8.301	-0.050964	0.13412	0.15579	0.017853	-0.15961	-0.064392	0.00824	0.003662	-0.48035	-0.082245	0.001068	0.002747	0.7692	-0.040131	0.053406	0.016327	0.008698	-0.0737	0.48584	-0.005798	-0.0737	-0.031433	0.1651	0.017853	0.022125	0.010986	0.10269	-0.001678	0.094299	-0.11185	-0.002899	-0.010529
8.302	-0.024872	0.094604	-0.084229	0.015564	0.054626	-0.10895	0.02243	0.012512	-0.41794	-0.10193	-0.023651	-0.003815	-0.22598	-0.12405	-0.014496	0.022888	0.003662	-0.12222	0.041504	-0.069427	-0.08316	-0.01236	0.14694	-0.011902	-0.001526	0.013428	0.11826	0.000305	0.18707	-0.089111	0.002136	-0.006409
